<mxfile host="app.diagrams.net" modified="2024-07-10T07:19:48.941Z" agent="Mozilla/5.0 (Windows NT 10.0; Win64; x64; rv:102.0) Gecko/20100101 Firefox/102.0" version="24.6.4" etag="yaiVuASHS3zkfuX0SKnJ" type="github">
  <diagram name="Seite-1" id="1gWcVJn0uZKPN52BTGCq">
    <mxGraphModel>
      <root>
        <mxCell id="0" />
        <mxCell id="1" parent="0" />
      </root>
    </mxGraphModel>
  </diagram>
</mxfile>
